# xmcd
#
# Track frame offsets: 
#        150
#        16465
#        31799
#        49313
#        64603
#        75659
#        87985
#        103620
#        118613
#        135009
#        150898
#        163942
#        179813
#        192728
#        203093
#        218118
#        230873
#        242062
#        255139
#        265948
#
# Disc length: 3731 seconds
#
# Revision: 1
# Processed by: cddbd v1.5.2PL0 Copyright (c) Steve Scherf et al.
# Submitted via: ExactAudioCopy v0.99pb4
#
DISCID=0e0e9114
DTITLE=Various Artist - 100 Vlaamse Klassiekers Volume 2 - CD 5
DYEAR=2008
DGENRE=Chanson
TTITLE0=De Kreuners - Verliefd Op Chris Lomme
TTITLE1=Wim Soutaer - Allemaal
TTITLE2=BiezeBaaze - LoetseBollekeZoetse
TTITLE3=Noordkaap - Ik Hou Van U
TTITLE4=Thor - Een Tocht Door Het Donker
TTITLE5=Sabine Tiels - Trein
TTITLE6=Bart Van Den Bossche - De Heuveltjes Van Erika
TTITLE7=Pim - 1 Miljoen Vlinders
TTITLE8=Get Ready - Laat
TTITLE9=Jimmy Frey - Saragossa
TTITLE10=Bart Kaëll - De Marie-Louise
TTITLE11=Willy Sommers - Laat De Zon In Je Hart
TTITLE12=Danny Fabry - Doe Het Licht Maar Uit
TTITLE13=John Terra - Een Deuntje Uit De Oude Doos
TTITLE14=Jo Vally - Zilverdraden Tussen Goud
TTITLE15=Will Tura - Lach Ermee
TTITLE16=Louis Neefs - Martine
TTITLE17=Ann Christy - Duizend Dromen Worden Waar
TTITLE18=Nonkel Bob - Vrolijke Vrienden
TTITLE19=Raymond Van Het Groenewoud - Vlaanderen Boven
EXTD=YEAR: 2008
EXTT0=
EXTT1=
EXTT2=
EXTT3=
EXTT4=
EXTT5=
EXTT6=
EXTT7=
EXTT8=
EXTT9=
EXTT10=
EXTT11=
EXTT12=
EXTT13=
EXTT14=
EXTT15=
EXTT16=
EXTT17=
EXTT18=
EXTT19=
PLAYORDER=
